<svg aria-hidden="true" style="position: absolute; width: 0; height: 0; overflow: hidden;" version="1.1" xmlns="http://www.w3.org/2000/svg" xmlns:xlink="http://www.w3.org/1999/xlink">
<defs>
<symbol id="i-angle" viewBox="0 0 32 32">
<path fill="#fd9222" style="fill: var(--color1, #fd9222)" d="M16.946 17.868c-0.242 0.244-0.577 0.394-0.947 0.394s-0.705-0.151-0.947-0.394l-0-0-6.106-6.12c-0.242-0.244-0.577-0.394-0.947-0.394-0.737 0-1.334 0.597-1.334 1.334 0 0.367 0.148 0.699 0.387 0.94l6.12 6.12c0.724 0.723 1.723 1.17 2.827 1.17s2.103-0.447 2.827-1.17l6.12-6.12c0.239-0.241 0.387-0.573 0.387-0.94 0-0.737-0.597-1.334-1.334-1.334-0.37 0-0.705 0.151-0.947 0.394l-0 0-6.106 6.12z"></path>
</symbol>
</defs>
</svg>
